<svg xmlns="http://www.w3.org/2000/svg" width="32" height="32" fill="none">
  <path fill="#FFFFFF"
    d="M16 0c8.837 0 16 7.156 16 15.984 0 6.455-3.833 12.012-9.348 14.535-1.168-11.034-3.099-13.198-4.716-15.004-.058-.065-.142-.133-.228-.203-.2-.161-.417-.337-.378-.521 1.078-5.063 8.535-4.326 8.535-4.326s.641-.614-2.102-1.041c-.478-.074-1.062-.148-1.671-.226-1.19-.152-2.473-.316-3.247-.513a23.749 23.749 0 0 1-2.127-.676c-1.827-.65-3.091-1.098-5.047.204-1.333.889-1.694 2.075-2.054 3.258-.249.818-.498 1.635-1.067 2.35-3.078 3.868-4.217 9.671-4.389 12.915A15.926 15.926 0 0 1 0 15.984C0 7.156 7.163 0 16 0Z" />
</svg>